<?xml version='1.0' encoding='utf-8'?>
<svg xmlns="http://www.w3.org/2000/svg" viewBox="0 0 800 790.32"> <g transform="matrix(1.2627 0 0 1.2627 -470.19 -72.468)"> <path d="m648.8 84.725c-134.87-1.2974-126.51 34.038-171.43 117.14-12.937 22.09-32.215 36.717-42.857 60-15.118 33.075-10.714 108.57-10.714 108.57 3.4464-31.015 4.7032-53.726 30.357-73.571l8.5714 29.286s-10.851 22.08-11.429 37.5c-0.68012 18.159 12.857 46.429 12.857 46.429s-2.5116 52.627-8.2143 78.214c-5.3727 24.106-10.784 49.32-24.286 70-14.737 22.571-59.286 55-59.286 55 26.826-3.6532 54.604-3.79 88.571-17.857-5.4373 12.342-12.896 26.706-22.143 42.857 34.933-2.944 68.026-25.069 100.71-51.429 2.3057 16.429 4.7014 32.857-7.8572 49.286 0 0 44.819-48.216 56.429-70.714 47.483-92.017 123.57-285 123.57-285l125.71 234.29c41.998 58.371 67.999 89.792 144.29 75.714-44.142-15.035-65.699-29.548-84.286-58.571 38.438 19.378 68.1 18.752 108.57 2.8571 0 0-56.74-13.407-74.286-34.286-15.531-18.481-18.571-70-18.571-70 14.286 49.239 28.571 49.081 42.857 54.286-2.9877 1.4036-44.268-77.494-41.429-108.57 5.6894-62.269 5.5232-25.513 0-161.43-2.1774-53.582-39.669-103.63-87.143-128.57-65.404-34.358-115.31-41.614-178.57-1.4286z"/> <path d="m583.09 683.3c9.809-77.821-8.0545-114.54-17.143-172.86l258.57-55.714c-1.1809 32.601-3.9635 50.655-10 97.143-10.955 84.367-3.3386 43.07 108.57 131.43z" fill="#df7f59"/> <path d="m581.66 188.3-40 56.429c-5.2892 16.337-12.26 29.135-15.714 49.286-2.2545 13.152-0.2689 26.19 0.71429 39.286-0.83081 4.5099-1.4761 9.0893 1.4286 15-13.364 30.885-10.491 66.553-8.2143 100 2.1478 31.556 27.318 73.772 53.929 117.14 0 0 46.762 65.002 90.714 68.571 37.375 3.0355 58.952-15.826 81.429-35 34.476-29.41 59.653-50.739 79.286-93.571 15.14-33.031 22.436-70.399 27.143-106.43 5.8964-45.133 12.821-102.04 0-145.71-7.4611-25.416-39.286-85.714-39.286-85.714l-138.57-28.571z" fill="#e28c6a"/> <path d="m806.28 337.74c-10.955-27.009-32.856-26.548-57.579-22.728-14.472 2.2357-41.416 14.647-41.416 14.647-24.763 12.452-20.383-2.107-2.0203-9.5964 0 0 23.767-13.684 36.871-13.637 31.243 0.11178 60.168-3.2638 64.145 31.315z"/> <path d="m551.82 319.6c-2.6883-8e-3 -5.4167 0.14717-8.1875 0.46875-6.0388 0.70088-12.55 1.8349-17.656 5.0938 0.21864 2.4366 0.43452 4.8732 0.625 7.3125 0.62123-0.25633 1.3711-0.58078 1.875-0.78125 5.3463-2.127 9.9072-3.7644 15.656-3.5312 3.1606 0.12819 9.1375 0.96042 12.125 2 7.6753 2.6708 12.676 3.9004 20.719 5.0625 5.8415 0.84401 17.688 1 17.688 1s-12.361-9.5063-19.219-12.125c-7.8175-2.9853-15.56-4.4774-23.625-4.5z"/> <path d="m693.65 373.1s3.6985-7.5953 6.566-10.607c6.3442-6.6624 22.728-15.657 22.728-15.657-8.7156 2.5894-15.345 7.038-22.223 12.627 10.607-19.969 60.114-30.086 75.761-10.607-18.776-9.4222-27.382-8.3691-35.86-6.566 0 0 14.784 2.3751 21.718 5.0508 22.344 8.6216 14.829 11.44 35.103 3.7881 0 0-9.2424 5.4296-17.678 13.385-4.4534 4.1998-11.154 10.065-16.92 12.122-7.0416 2.5122-14.748 2.9188-22.223 3.0305-11.173 0.16683-33.335-3.5355-33.335-3.5355-5.6551-0.59979-15.315 0.83223-13.637-3.0304z"/> <path d="m696.66 371.69s17.925-22.487 40.357-23.393c12.075-0.48774 34.286 11.786 34.286 11.786s-16.628 12.068-27.5 13.571c-10.257 1.4182-24.646-2.8912-35-2.8572-4.5798 0.0151-12.143 0.89286-12.143 0.89286z" fill="#eef2f4"/> <path d="m738.19 348.28c-0.39616-9e-3 -0.7789 0.016-1.1562 0.0312-4.1819 0.16892-8.2183 1.054-12 2.4375-1.2296 2.2395-1.9375 4.8273-1.9375 7.5625 0 8.0544 6.0634 14.657 13.875 15.562 0.95438 0.0429 1.8956 0.0743 2.8125 0.0625 0.21145-3e-3 0.41584-0.0253 0.625-0.0312 7.9181-0.80413 14.094-7.4635 14.094-15.594 0-2.3272-0.49783-4.5446-1.4062-6.5312-5.1723-1.8962-10.574-3.4025-14.906-3.5z"/> <path d="m738.19 348.28c-0.39616-9e-3 -0.7789 0.016-1.1562 0.0312-3.4168 0.13801-6.746 0.76633-9.9062 1.75-1.6476 2.33-2.625 5.1792-2.625 8.25 0 7.8962 6.4162 14.281 14.312 14.281s14.281-6.385 14.281-14.281c0-2.6249-0.703-5.1045-1.9375-7.2188-4.5649-1.562-9.1719-2.727-12.969-2.8125z" fill="#800000"/> <path transform="matrix(.3911 0 0 .3911 518.95 262.95)" d="m577.14 243.79c0 8.2843-6.7157 15-15 15s-15-6.7157-15-15 6.7157-15 15-15 15 6.7157 15 15z"/> <path transform="matrix(.2515 0 0 .3461 602.47 273.6)" d="m577.14 243.79c0 8.2843-6.7157 15-15 15s-15-6.7157-15-15 6.7157-15 15-15 15 6.7157 15 15z" fill="#e6e6e6"/> <path transform="matrix(.20608 0 0 .27631 620.26 300.23)" d="m577.14 243.79c0 8.2843-6.7157 15-15 15s-15-6.7157-15-15 6.7157-15 15-15 15 6.7157 15 15z" fill="#e6e6e6"/> <path d="m525.97 340.22c0.0907 2.4655 0.66015 5.1129 2.125 8.0938-3.7839 8.7451-6.2812 17.866-7.8438 27.219l17.125-0.8125 26.438-22.844c-18.653-0.50413-27.625-1.2373-37.844-11.656z" fill="#df7f59"/> <path d="m606.11 367.74c-5.6441-8.3374-25.939-13.112-31.594-12.659 9.0566-1.934 15.013 0.59683 23.214 3.9286-11.945-6.7896-22.477-10.035-30-9.7406-11.429 0.44722-27.034-0.0481-27.857 14.026-1.6917 2.3308-3.5474 4.3337-5.7143 5.7143 2.2235 0.67589 3.7225 0.62725 5 0.35715-0.80681 1.6733-2.6459 3.0885-5.3572 4.2857 0 0 9.4147 9.4457 15.357 12.143 5.9534 2.7021 11.155 3.1101 17.679 2.6786 5.7474-0.38018 14.286-3.3929 14.286-3.3929 6.3151-2.0593 17.639-1.6585 23.979-2.7017 8.5497-1.4068 4.0123-10.201 1.0074-14.639z"/> <path d="m577.37 357.58c30.603 2.5088 30.009 17.11 29.821 18.036-0.48249 2.3865-5.5313 2.9076-11.876 3.9386-5.7928 0.94141-12.695 2.4862-17.589 2.6685-5.5704 0.20754-12.258-0.16771-17.321-2.5-5.8446-2.6924-9.5041-6.9071-9.6338-9.4738-0.40475-8.0142 21.628-13.077 26.598-12.669z" fill="#eef2f4"/> <path d="m576.25 357.56c-2.1422 0.0821-5.6787 0.70062-9.4375 1.7188-1.3284 2.2884-2.0938 4.9448-2.0938 7.7812 0 7.4927 5.2835 13.728 12.344 15.188h0.0312l0.625-0.0312c2.6205-0.0976 5.8311-0.57907 9.125-1.1562 5.2624-2.4856 8.9062-7.7939 8.9062-14 0-2.0747-0.41785-4.0658-1.1562-5.875-4.205-1.6668-9.786-2.9844-17.219-3.5938-0.31064-0.0255-0.69071-0.0479-1.125-0.0312z"/> <path d="m576.25 357.56c-1.5451 0.0592-3.8211 0.38064-6.375 0.9375-1.9143 2.3196-3.0625 5.3201-3.0625 8.5625 0 7.4112 5.995 13.406 13.406 13.406s13.438-5.995 13.438-13.406c0-2.5104-0.70652-4.8656-1.9062-6.875-3.7981-1.1897-8.5031-2.1124-14.375-2.5938-0.31064-0.0255-0.69071-0.0479-1.125-0.0312z" fill="#800000"/> <path transform="matrix(.32084 0 0 .32084 450.18 285.85)" d="m420.36 253.08c0 8.2843-6.7157 15-15 15s-15-6.7157-15-15 6.7157-15 15-15 15 6.7157 15 15z"/> <path transform="matrix(.25209 0 0 .2875 480.23 302.54)" d="m420.36 253.08c0 8.2843-6.7157 15-15 15s-15-6.7157-15-15 6.7157-15 15-15 15 6.7157 15 15z" fill="#e6e6e6"/> <path transform="matrix(.15586 .08378 -.13612 .25323 558.09 269.03)" d="m420.36 253.08c0 8.2843-6.7157 15-15 15s-15-6.7157-15-15 6.7157-15 15-15 15 6.7157 15 15z" fill="#e6e6e6"/> <path d="m606.66 352.58c17.085 3.8026 26.895 10.733 25.49 27.897l-3.4441 42.095c-1.0439 12.758-4.4555 19.88-23.475 32.151 10.582-53.357 5.7371-40.718-44.286-33.571 34.113-13.287 72.421-34.188 45.714-68.571z" fill="#df7f59"/> <path d="m625.23 479.01c-9.7745-2.7518-19.524-5.5239-20-15.714-10.208 29.323-6.4396 24.759 20 15.714z" fill="#df7f59"/> <path d="m661.66 469.73c3.5182-3.0302 2.2974-2.4044 4.8495-3.8801 6.0108-3.4755 10.3-2.2584 10.151 1.023-0.13485 2.9644-3.0394 2.7994-7.4553 2.458-2.7494-0.21257-3.4168 3e-3 -7.5447 0.39916z" fill="#be5025"/> <path d="m630.95 474.37c-3.9437-3.1177-3.6372-5.0496-9.2857-8.9286-3.2092-2.2038-6.3372 3.1722-1.7857 4.6429 7.8445 2.5346 6.5436 3.0112 11.071 4.2857z" fill="#be5025"/> <path d="m654.52 573.3c-11.096 10.677-26.588 13.51-41.429 15.714 18.208 8.9943 32.562 10.885 41.429-15.714z" fill="#df7f59"/> <path d="m595.23 523.3s13.923 1.2448 20.714 0c7.2638-1.3313 13.363-7.1554 20.714-7.8572 5.5332-0.52823 10.892 3.3473 16.429 2.8572 5.552-0.49146 10.176-5.0832 15.714-5.7143 11.678-1.3308 23.268 3.5701 35 4.2857 9.5061 0.57984 28.571 0 28.571 0-22.292 25.174-28.985 42.188-67.854 47.184s-51.942-18.875-69.289-40.755z" fill="#f13030"/> <path d="m606.66 526.87s11.514 0.3342 17.143 1.4286c7.0967 1.3798 13.501 5.9382 20.714 6.4286 4.3348 0.29472 8.515-1.9904 12.857-2.1429 5.0195-0.17625 10.01 1.9969 15 1.4286 2.9924-0.34079 5.65-2.1254 8.5714-2.8571 9.6064-2.4062 19.798-2.161 29.286-5 3.9836-1.192 11.429-5 11.429-5s-5.2675 5.0724-8.5714 6.4286c-9.7812 4.015-21.27 1.3528-31.429 4.2857-2.764 0.79803-5.072 2.8507-7.8572 3.5714-5.781 1.496-11.89 1.1903-17.857 1.4286-4.5202 0.18052-9.1022 0.70062-13.571 0-6.9181-1.0845-13.246-4.5794-20-6.4286-5.181-1.4185-15.714-3.5714-15.714-3.5714z" fill="#9a3d3d"/> <path d="m643.09 549.01c8.7533-3.1804 18.959 0.6057 27.857-2.1428 8.6626-2.6757 23.571-13.571 23.571-13.571s-6.122 15.847-12.143 21.429c-3.2806 3.0412-7.8312 4.5221-12.143 5.7143-6.9189 1.913-14.325 3.1753-21.429 2.1429-5.6006-0.81397-15.714-6.4286-15.714-6.4286s6.1499-5.744 10-7.1429z" fill="#f78282"/> <path d="m629.52 528.3s10.254-1.0169 15-2.8572c3.3885-1.314 5.816-4.6329 9.2857-5.7143 4.3249-1.3479 16.256-2.2341 20.714-1.4286 5.8762 1.0618 9.2857 7.8572 9.2857 7.8572s-8.9471 2.866-13.571 3.5714c-5.1835 0.7907-10.492 0.24829-15.714 0.71428-3.5888 0.3202-7.1169 1.631-10.714 1.4286-4.9007-0.27578-14.286-3.5714-14.286-3.5714z" fill="#f78282"/> <path d="m653.75 191.78c-55.908 19.755-103.81 38.663-134.35 100.01 0 0 0.4847 24.783 0.12255 38.263-1.3885 51.686 34.349 64.408 71.598 71.843-24.868 6.3891-25.944 7.1191-48.487 0 18.628 17.201 21.064 17.14 44.447 22.223-24.25 5.5173-34.631-2.6118-54.548-15.152 15.087 28.753 11.781 30.175 8.0812 61.619-5.5768-40.669-17.64-56.57-47.477-80.812-24.248-19.701-25.388-54.086-24.244-82.833 1.692-42.49 17.412-87.233 45.457-119.2 35.074-39.977 135.36-75.761 140.41-75.761s172.74 19.193 172.74 19.193l49.498 69.701v128.29c0 4.0406 14.142 91.924 14.142 91.924-19.175 1.594-33.61-20.512-47.477-45.457-12.442-33.206-32.617-55.803-34.345-101.02-0.8194-21.434-15.197-41.479-49.498-46.467-39.572-5.7542-74.254-17.157-106.07-36.365z"/> </g> </svg>