<?xml version='1.0' encoding='utf-8'?>
<svg xmlns="http://www.w3.org/2000/svg" enable-background="new" viewBox="0 0 959.09 763.36"> <defs> <filter id="a"> <feBlend in2="BackgroundImage" mode="multiply"/> </filter> </defs> <g transform="translate(0 -289)" filter="url(#a)"> <g transform="translate(117.43 428.57)"> <path d="m211.07-107.9c172.47-93.192 277.36 97.726 406.08 165.57 26.245 13.831 69.72 23.998 84.853 55.899 13.097 27.609-9.7111 74.822-6.0609 82.517 16.184 34.117 66.711 44.849 80.812 89.438 6.6565 21.048-32.057 64.167-17.173 79.855 44.031 46.411 112.37 38.359 57.96 153.05-12.704 26.782-44.151 52.017-66.67 63.884-57.474 30.29 18.96 1.6386-40.788 22.631-67.184 23.605-368.83 26.189-445.68 12.688-34.115-5.9931-73.171-30.045-101.02-44.719-39.54-20.838-189 76.116-204.86 42.678-29.51-62.412 115.95-82.581 62.629-151.19-26.461-12.774-39.576-35.033-48.877-58.523-12.22-30.862-17.857-63.85-38.532-80.251-20.474-14.319-47.037-35.168-44.921-67.785 8.4824-130.74 103.77-233.38 138.99-296.15 41.385-62.363 159.49-82.251 179.71-69.059" fill="#00f" stroke="#000" stroke-width="1.027"/> <path d="m496.01 371.44c-9.1162 38.178 51.429 211.63 10.16 229.57-26.23 11.398-78.265 5.8863-108.37 5.8863-90.403 0-66.038-32.454-66.038-105.95" fill="#fba457" stroke="#000" stroke-width="1.105"/> <path d="m173.35 1.8732c23.256-0.99268 37.23 7.9929 55.792 15.712 43.559 18.113 101.2 45.949 147.02 91.123 18.354 18.094 49.657 14.285 73.348 27.379 9.2223 6.7828 10.286 27.555 19.626 34.421 14.317 10.526 35.984-36.452 48.549-23.887 48.732 49.53 46.479 134.69-7.612 131.86 5.9707 8.956 1.0102 39.439 1.0102 50.508 0 41.832-24.593 78.238-49.252 111.12-19.343 25.791-88.955 104.87-120.21 111.12-31.415 6.7102-62.503-15.931-80.241-25.907-126.55-70.385-153.07-113.42-166.78-219.56-5.0362-15.109-18.164-23.322-23.185-38.386-8.813-34.863-1.2307-102.21-14.9-134.35 5.4054-10.545 0.37113-31.962 9.5268-40.578 33.157-31.202 56.1-76.625 107.3-90.569z" fill="#fba457" stroke="#000"/> <path d="m235.44 422.55c14.628 4.0884 23.222-1.9724 31.188-10.733 31.514 6.3598 45.472 9.5177 76.404 2.8968-26.692 39.859-105.64 74.474-112.08 37.795-1.3684-7.7919-1.345-16.402 4.489-29.959z" fill="#f00"/> <g transform="translate(-65.714 -231.43)" fill="#fff"> <path d="m302.36 688.33c0.95466-1.1535 10.969-8.3819 23.912-14.288 13.823-6.3077 31.312-11.943 47.547-16.281 10.631-2.8405 21.301-4.1871 28.04-8.0693-8.7066 14.761-82.544 63.749-99.5 38.638z" opacity=".3"/> <path d="m299.76 680.5c9.5682-5.769 36.669-15.295 56.246-22.813 16.661-6.3979 45.102-5.8312 43.254-7.681-0.50692 1.458-21.235 2.0478-33.775 1.4638-16.434-0.76549-25.824-3.1395-27.845-4.1154-17.947 21.881-32.918 7.8569-35.229 11.301-1.8556 5.5667-6.0141 16.24-2.6516 21.845z" opacity=".3"/> </g> <path d="m529.34 202.84-18.58-2.2603c2.1499 12.389 2.8172 24.095-4.2208 33.96 9.2515-6.6636 19.582-15.267 22.801-31.7z" fill-rule="evenodd"/> <path d="m203.13 152.83 15.373-6.0361c50.666-31.373 66.551-44.462 108.48-29.686-46.024-21.046-79.696-7.2058-123.85 35.722z" fill-rule="evenodd"/> <path d="m243.3 204.73 2.2086 15.181c47.9-4.6209 78.824-24.786 80.718-40.925-31.347 12.686-53.781 22.843-82.927 25.745z" fill-rule="evenodd"/> <path d="m245.49 219.88 2.1258-14.882c-2.6444-1.2654-5.973 1.8802-7.3413-1.6906-1.2714-12.775 2.7428-30.874 12.971-34.684-19.006 9.758-23.431 36.501-7.7552 51.257z" fill-rule="evenodd"/> <path d="m158 264.67-13.318-6.5712c-5.8774 15.401-19.776 33.252-33.609 39.625 15.909 13.16 38.642-13.738 46.927-33.054z" fill-rule="evenodd"/> <path d="m144.61 258.64 13.282 6.2836c-0.42264-19.438-8.8909-16.837-15.927-15.954 4.8804 3.8961 4.7172-0.66319 2.6448 9.6707z" fill-rule="evenodd"/> <path d="m81.721 234.87c-7.5077 0.85409-10.092 0.23452-15.022 1.1115 34.262-28.364 58.843-14.017 70.384-6.325-19.674-6.8985-35.903-12.013-55.362 5.2134z" fill-rule="evenodd"/> <path d="m232.6 369.51c-2.8569 0.0707-5.4838 0.4237-7.9137 0.71227-3.381 0.38813-6.7082 0.77941-9.9988 1.0479-3.229 0.25557-6.3501 0.4473-9.3502 0.26603-1.2128-0.0782-2.3291-0.18346-3.3181-0.42146-0.7745-0.2284-1.3452-0.35276-1.5611-0.55262-1.3006-0.90002-2.4505-2.1319-3.417-3.537-1.0672-1.5488-1.8918-3.3613-2.5713-5.2951-1.6688-4.7412-2.2558-10.009-2.5746-15.398-0.36844-6.5736-0.17968-13.243 0.13195-19.954 0.34891-7.4634 0.8857-14.951 1.3396-22.464 0.9149-14.986 1.702-30.208-0.33158-45.187-0.8905-6.5691-2.3807-13.115-5.0284-19.193-2.4127-5.5405-5.8902-10.654-10.46-14.526 4.3812 4.0842 7.5578 9.3011 9.672 14.848 2.3228 6.0954 3.4652 12.573 4.0421 19.071 1.3144 14.834-0.19583 29.752-1.7974 44.659l-1e-5 1e-5c-0.80609 7.4544-1.6981 14.921-2.4083 22.442-0.63975 6.7494-1.1524 13.577-1.1002 20.49 0.0248 5.6325 0.43821 11.477 2.1031 17.246 0.69196 2.3903 1.6679 4.7856 3.0445 7.0587 1.2722 2.096 2.9252 4.0216 4.9491 5.615h1e-5c1.4302 1.0348 2.8402 1.6224 4.0552 1.9194 1.5949 0.44434 3.1403 0.68852 4.5908 0.83292 3.5846 0.36915 7.0894 0.34001 10.457 0.21676 3.4917-0.12096 6.9304-0.35911 10.315-0.58739 2.5772-0.16763 4.9595-0.39009 7.1305-0.31941 0.30268 0.0666 0.45237 0.065 0.30644 0.0775-0.10629-0.0813-0.12009-0.0231-0.0584 0.0615 7.1416-4.8544 9.6773-9.3362-0.24804-9.1287z" fill-rule="evenodd"/> <path d="m140.63 9.3794-4.5893 8.8847c8.4153 4.2759 17.201 7.545 26.043 10.239 9.3603 2.8568 18.817 5.1152 28.239 7.1723 19.574 4.2822 39.124 7.7197 57.995 13.078l4e-5 1.1e-5c9.3017 2.6408 18.432 5.7291 27.161 9.6254 8.5874 3.8349 16.801 8.4463 24.236 14.05 7.6516 5.7598 14.503 12.597 20.202 20.288 6.4112 8.6343 11.393 18.369 15.111 28.584l2e-5 4e-5c9.6949 26.708 20.35 53.153 33.047 78.66 10.149 20.394 21.671 40.212 35.4 58.486 11.769 15.663 25.229 30.094 40.348 42.575 14.681 12.112 30.833 22.318 47.744 30.895 18.553 9.409 37.95 16.956 57.578 23.596 23.082 7.81 46.522 14.42 70.002 20.761 62.65 16.92 125.62 32.548 187.91 50.7-62.065-18.898-124.88-35.288-187.29-52.948-23.386-6.6178-46.695-13.493-69.577-21.543-19.456-6.8465-38.609-14.562-56.816-24.077-16.584-8.6671-32.354-18.895-46.586-30.934l-2e-5 -2e-5c-14.663-12.396-27.678-26.702-39.039-42.197-13.268-18.093-24.367-37.744-34.164-58.016-12.254-25.363-22.492-51.695-31.817-78.359-3.7818-10.83-8.9705-21.25-15.753-30.645-6.0502-8.3648-13.332-15.817-21.502-22.119-7.9322-6.1121-16.611-11.139-25.624-15.281-9.1497-4.2066-18.621-7.5472-28.172-10.374l-2e-5 -6e-6c-19.372-5.7331-39.073-9.4555-58.348-13.908l-2e-5 -4e-6c-9.2812-2.1481-18.464-4.4524-27.404-7.305-8.4423-2.6985-16.664-5.8545-24.335-9.8881z" fill="#00f" fill-rule="evenodd"/> <path d="m385.33 105.7-9.1096 4.1249c10.602 22.378 19.995 45.532 30.581 68.264 4.4828 9.6314 9.2518 19.196 14.691 28.42l1e-5 1e-5c5.1125 8.6718 10.854 17.023 17.434 24.7 6.6904 7.8014 14.237 14.843 22.467 20.941l1e-5 1e-5c9.2443 6.8457 19.28 12.497 29.686 17.194 28.525 12.865 59.334 19.246 90.053 23.83-30.545-5.627-61.057-13.053-88.699-26.699-10.069-4.9682-19.685-10.823-28.405-17.759-7.7606-6.1698-14.804-13.212-20.976-20.927-6.0804-7.594-11.338-15.846-16.018-24.426v-1e-5c-4.9823-9.137-9.321-18.65-13.426-28.306-9.7101-22.848-18.299-46.283-28.278-69.358z" fill="#00f" fill-rule="evenodd"/> <path d="m136.58 16.325-8.6047 5.095c19.517 32.319 42.305 62.087 61.45 93.851 9.0169 14.973 17.283 30.352 23.311 46.555 5.5067 14.838 9.1347 30.429 8.9498 46.063-0.084 7.4998 0.71716 15.025 2.5078 22.332v1e-5c1.6955 6.9023 4.2686 13.564 7.5858 19.814 6.8339 12.834 16.592 23.768 27.439 33.085 12.057 10.37 25.428 18.969 39.126 26.741 14.9 8.4588 30.269 15.965 45.679 23.287 15.761 7.49 31.598 14.765 47.188 22.52h1e-5c14.931 7.4282 29.666 15.268 43.625 24.352 12.69 8.2616 24.794 17.565 34.983 28.762l2e-5 2e-5c4.7357 5.2034 9.0359 10.818 12.669 16.851 3.5836 5.9511 6.5076 12.312 8.6056 18.948-1.9845-6.6711-4.804-13.095-8.2989-19.129-3.5432-6.1174-7.7676-11.835-12.441-17.149l-2e-5 -2e-5c-10.056-11.431-22.076-21.013-34.692-29.53-13.875-9.369-28.545-17.501-43.387-25.201l-3e-5 -2e-5c-15.499-8.0414-31.23-15.597-46.836-23.342-15.261-7.5747-30.428-15.304-45.033-23.931-13.428-7.9367-26.423-16.6-37.949-26.88-10.341-9.2353-19.516-19.835-25.676-31.987-3.0045-5.9055-5.2994-12.162-6.7604-18.593l-1e-5 -2e-5c-1.5505-6.8066-2.1705-13.83-1.9768-20.83 0.43342-16.644-3.0494-33.125-8.5533-48.636-5.9869-16.912-14.191-32.871-23.104-48.22-18.912-32.597-41.227-62.811-59.806-94.83z" fill="#00f" fill-rule="evenodd"/> <path d="m133.23 19.681-9.9919 0.40327c0.771 15.84 0.49214 31.877 0.68693 48.043 0.21595 18.454 0.86759 37.032 3.1643 55.524 2.2593 18.307 6.1755 36.677 13.507 53.877l2e-5 3e-5c3.5192 8.2419 7.8721 16.178 13.194 23.468 5.3462 7.3183 11.679 13.926 18.846 19.494 1.1396 0.86292 2.2307 1.4498 3.1645 1.9056l3e-5 2e-5c1.5556 0.79004 3.1114 1.4833 4.6387 2.135 4.6431 1.9841 9.3339 3.7391 13.999 5.4395 14.689 5.357 29.52 10.214 44.345 14.986 42.706 13.746 85.691 26.547 128.77 38.968l3e-5 1e-5c44.094 12.714 88.311 25.041 132.81 36.268l3e-5 1e-5c16.38 4.1332 32.799 8.152 49.341 11.592 5.6935 1.1839 11.404 2.3059 17.152 3.1916 2.0898 0.32202 4.1854 0.61241 6.2893 0.82355 1.5318 0.15375 3.07 0.27467 4.6089 0.26248-1.5389-0.0122-3.0729-0.15741-4.601-0.33522-2.0985-0.24421-4.1867-0.56744-6.2694-0.9222-5.7287-0.97585-11.414-2.1869-17.085-3.46l-3e-5 -1e-5c-16.475-3.6989-32.813-7.9737-49.12-12.364l-2e-5 -1e-5c-44.292-11.926-88.278-24.943-132.15-38.348-42.857-13.096-85.594-26.564-128-40.959-14.73-5.0007-29.414-10.068-43.885-15.608-4.6054-1.764-9.162-3.5494-13.588-5.5268-1.4593-0.65296-2.8736-1.3074-4.2116-2.0171l-3e-5 -1e-5c-0.88244-0.48543-1.6146-0.86024-2.0812-1.2642-6.5692-5.2666-12.356-11.51-17.225-18.395-4.8578-6.8649-8.8169-14.385-12.029-22.227-6.7255-16.391-10.159-34.09-12.117-51.951l-1e-5 -3e-5c-1.9612-18.03-2.3-36.279-2.2342-54.593 0.0635-15.987 0.59491-32.121 0.0693-48.408z" fill="#00f" fill-rule="evenodd"/> </g> </g> </svg>